<svg id="Layer_1" data-name="Layer 1" xmlns="http://www.w3.org/2000/svg" viewBox="0 0 281.44 373.24"><defs><style>.cls-1{fill:#b4aeaa;}.cls-2{fill:#c4c2c0;}.cls-3{fill:#5e4133;stroke:#352616;}.cls-15,.cls-17,.cls-3,.cls-7{stroke-miterlimit:10;}.cls-17,.cls-3,.cls-7{stroke-width:0.5px;}.cls-4{fill:#f1eae2;}.cls-5{fill:#020303;}.cls-6{fill:#b6a298;}.cls-7{fill:#fff;stroke:#fff;}.cls-8{fill:#3a2222;}.cls-9{fill:#484441;}.cls-10{fill:#dddada;}.cls-11{fill:#e0ddd8;}.cls-12{fill:#3b2d33;}.cls-13{fill:#a88a88;}.cls-14{fill:#2b1f1f;}.cls-15,.cls-17{fill:none;}.cls-15{stroke:#e0ddd8;stroke-width:0.25px;}.cls-16{fill:#9e807f;}.cls-17{stroke:#484441;}</style></defs><title>koala</title><path class="cls-1" d="M243.33,60s-28.53.25-29.81-4.75-10-24.75-13.52-26-.75,2.5,0,5-5.5-9-7.75-9,2.5,4.25,1.5,7.5-8.5-8.25-16-7.5.75,1.25,1.5,6.25-13.75-4.75-17.5-1,3.5,3,5.75,6.75S155,33.5,147.75,41s4-2,9.75,7.25c0,0-14.5-2.5-20.25,2s6.5.75,11.75,7.25-10.25-4.25-15.5,2.5,5.75,0,9,11.5,4,19.25,11.25,21,10,1.92-.5,11.08,6,.24,12,.83,9,5,9.25,5.92-4.5,14.41-4,17.66-2.75,11-15.5,21.5-57,42-65.25,53.75-29.25,42-24.75,76,14,53,18.5,57.5,25.25,4.5,26.75,7.5-1.75,5.5,12,10.5,18,8.5,20.75,10.25,9,3.5,9.5-2.5c0,0,2.5-1,8.25,2.75s13.75,2.25,15-2,2-11.75-1.5-12.5-6-14,1.5-11,26.25,25.78,26,27.64-9.5,15.11-7.5,18.61.5,6,7.25,4c0,0,2.25,9.25,7.75,7.25s13.75-13.25,18-12,9,2.25,7.75,10.5c0,0,9.75,7.5,12.5-2.5s-3.75-14.25,0-15.5,4.75-1.5,7.75-.5,10.75,7,13.5,7,8.75,1.5,8-5S269,368,269,368s.75-5.5-2.25-6-14,.5-18.5-12.25S226,285,226,285s8.5-1.75,12.5-13.75c0,0,32.5,60.25,32.5,63.25s2.5,15.75,4.5,16.25.5,5,2.75,5,5.25,2.75,8-.75c0,0,5,7,9.25,2.75s9.75-7.25,14.75-7.25,7,.75,12.25,2,8.75-.75,9.25-5-3.25-7.75-4-7.75-1.5-3.5-3.75-3.5-6.25-2.5-7.75-2.5-13.25,2.75-14.25.5-23.75-89.25-20.25-102,9.25-18.25,2-64c0,0,13.25-29.5,13.25-45,0,0,6.75-.25,8.5.5s-4.75-6.25-1-5.25,9,6,9,6-3.5-9.12-5.5-10.31,11.5,3.31,14.75,4.31,6.25-2.87,3.5-4.31,9-2.76,9-4.85-11.25-3.46-6.5-4.53,9.25-2.1,10.75-5.33,4-5,0-5.73,2-5.25,4.75-5.25S341,88,338,88s11.41-6.5,7-7.25-15.2-4-15.2-4,12-11.75,15-10.25-1.25-7-6.25-6.75-1-7.25,3.5-10,2-5.5-6.5-2-2.25-5-.75-5S323,36.25,319,36.5s-12.75-4.25-19.25,2.5-8.25,8.25-7.75,5.75,3.75-8.5,1-7S283.75,42.5,283,47s-6.06,15-7.4,15S248.92,58.25,243.33,60Z" transform="translate(-64.38 -25.21)"/><path class="cls-2" d="M209.85,112.23s4.37-3,3.67-5.79a2.83,2.83,0,0,1,.08,3.9A4.38,4.38,0,0,1,209.85,112.23Z" transform="translate(-64.38 -25.21)"/><path class="cls-3" d="M204.5,108s.58-5.58,5.08-6.08S213.5,108,213.5,108s-2.83,6.25-6.58,4.08A4.47,4.47,0,0,1,204.5,108Z" transform="translate(-64.38 -25.21)"/><path d="M209,103.58s2.32,3.92-.76,6.75C208.25,110.33,204.19,106.67,209,103.58Z" transform="translate(-64.38 -25.21)"/><path class="cls-4" d="M208.25,105.08a4.91,4.91,0,0,1,3.67-.5s-.75,1.92,0,2-2.67-.33-3.25.38C208.67,107,207.49,106.58,208.25,105.08Z" transform="translate(-64.38 -25.21)"/><path class="cls-3" d="M266.94,115.06a3.94,3.94,0,0,1-.94-5.12c1.75-3.06,1.44-5.06,4.56-5.12s4.31,3.94,4.31,3.94,1.63,4.94,0,6.31S270.38,117.25,266.94,115.06Z" transform="translate(-64.38 -25.21)"/><path class="cls-5" d="M270.5,107.19a3,3,0,0,0-1.25,2.75c.31,1.69-.56,1.31,1.25,4.25,0,0,2-.12,2.12-2.87S271.32,106.94,270.5,107.19Z" transform="translate(-64.38 -25.21)"/><path class="cls-6" d="M226.92,128s8.83,7.67,8.5,13c0,0-1.5-1.71-1.5-.61s2.33,4.36.17,5-6.92,1.71-7.83-5S225.67,127.83,226.92,128Z" transform="translate(-64.38 -25.21)"/><path class="cls-7" d="M267.09,110.65a24.7,24.7,0,0,1,3.38-.44c.25.13-.83-1.27-.16-1.92s-2.82,0-2.82,0S266.13,110.82,267.09,110.65Z" transform="translate(-64.38 -25.21)"/><path class="cls-8" d="M227.83,131.08s2.67-1,7.42,7-4.58-7.75-3.71-2.58C231.54,135.5,227.67,137.67,227.83,131.08Z" transform="translate(-64.38 -25.21)"/><path class="cls-6" d="M245.76,135.44s5.83-6.35,6.24-6,2.5,5,0,9.75-6.92,10.15-9.5,6.74S244.93,135.21,245.76,135.44Z" transform="translate(-64.38 -25.21)"/><path class="cls-8" d="M243.33,137.75s5.25-5.5,7.58-5.42c0,0,0,3.92-3.79,4.67Z" transform="translate(-64.38 -25.21)"/><path class="cls-9" d="M226.92,128a30.11,30.11,0,0,1,9.25,13.08s1.94,3.75,5.6,0A38,38,0,0,1,252,129.42s.92-6.25,3.42-8.58.92-20.33-12.75-20.58S224,110,224.17,114.19,227.74,126.84,226.92,128Z" transform="translate(-64.38 -25.21)"/><path class="cls-10" d="M141.67,209.33S138.33,243,135,244s2,4.67,3.33,2-1.67,7.33-3,10.67-4.33,12.67,0,7.67.33,1.33.67,5.67,5.33,16.67,5.67,12.67,2.67,6.33,2.67,8.33,4.67,3.67,4.67,0,2.67,9,2.33,11-2.94,10.33,0,7,3,.67,3.3,2.67,1.67,10,2.33,6,5.67,7.67,7.33,8.33,6.44,10.43,11.42,13.75,25.42,24.36,26,27.64,4.44-1.06,3.34-6.72-5.43-6-5.43-8.67.33-8.33-2-6,0-8-2.67-6.67-14-3-10.33-4.33,0-7.33-2.33-7.67S178,322,177,322s-.67-3-4-5.67-3.67-10-7.67-10.33-9-8.33-9-12.67-1.33-10.33-3.67-11-6-.67-6-5.67S145.33,269,144,263.33s-1-8.67-.67-14.67.33-17.33,0-21.33S141.67,209.33,141.67,209.33Z" transform="translate(-64.38 -25.21)"/><path class="cls-11" d="M184.33,147a13.11,13.11,0,0,0-8.33-2.64c-4.67.33,4.17,2.64,4.17,2.64s-8.17,1.69-8.17,3,5.67,3,4.33,7.67-1,8.33.33,9.33.67,1.33,1.5,6,1.5,11.33,6.17,14,24,21,24.68,24.83,9.49,15.83,9.07,20.83-4.37,14-4.56,19.33S226,285,226,285s8.67-2.5,12.5-13.75S257,246.67,261,246.67s25.92-29.66,26-51.33-3.21-27.09-3.21-27.09,2.92-10.25-.75-6.58S264.17,181,250.92,177.33c0,0-5.42-1.67,0-14S254.75,147,253.21,147s.67,11.36-16.6,13.69c0,0-13,.06-10.88-14.76,0,0-4.06-3.57-4.06,3.09s-.54,16.33,4.06,21.33-1.56,7.67-7.64,6.33S184.33,157,184.33,147Z" transform="translate(-64.38 -25.21)"/><path class="cls-11" d="M256.4,248.88s-4.65,9.45-3.19,15.79-1.55,8.33,1.45,11.67,8,16,8,21,7,26.67,7,26.67c-.09,6.86,1.33,10.5,1.33,10.5l-32.5-63.25S243.14,247.76,256.4,248.88Z" transform="translate(-64.38 -25.21)"/><path class="cls-12" d="M145.5,352.67s3.46-2.06,4.83,5.17S152.17,368,151.67,370s-2.33-7.44-4.67-8.8S143.72,352.84,145.5,352.67Z" transform="translate(-64.38 -25.21)"/><path class="cls-12" d="M162.67,353.33s4.37.08,7.67,6.33,3.17,9.72,3.17,10.61-5-9.44-10.17-9.78C163.33,360.5,160.5,355.67,162.67,353.33Z" transform="translate(-64.38 -25.21)"/><path d="M176.46,353.33s7.21,1.67,10.21,7,2.83,6.5,2.83,6.5a7.36,7.36,0,0,1-4-3.33c-1.83-2.83-9-7-9-7Z" transform="translate(-64.38 -25.21)"/><path class="cls-12" d="M173.5,354.5s3.5-1.5,7,1.83,7,9.71,7,12.19c0,0-1.83.15-2.5-1s-5.16-8.16-8.88-5.67C176.12,361.83,170.5,363.33,173.5,354.5Z" transform="translate(-64.38 -25.21)"/><path class="cls-10" d="M85.5,261s4,43,9,56,15.8,22.26,18.15,32.88c0,0,21.68,10.12,30.35,15.12s-10-12.5-2.5-17.5-.85-12.5-7.42-8-5.08-5.5-3.58-5,.5-2.5-8-2.5-20,1-25.5-24.5S85.5,261,85.5,261Z" transform="translate(-64.38 -25.21)"/><path class="cls-13" d="M204.5,57.5S200,33.5,183,39.5,160.2,54.5,161.85,66,161,85.5,173.5,87.5s16,4.5,16,4.5S203,64.54,209,65.27,204.5,57.5,204.5,57.5Z" transform="translate(-64.38 -25.21)"/><path class="cls-13" d="M287,65.27S289.5,46.5,309.5,51s15,35.5,10,41S296,103.58,296,103.58s-6.5-19.7-11.5-26.64S285.14,70.9,287,65.27Z" transform="translate(-64.38 -25.21)"/><path class="cls-14" d="M209.42,371.83s-3.42-3.82-7.5-.42S191.33,384,191.67,388.08s2.74-7.08,8.87-8.5S207.42,375.08,209.42,371.83Z" transform="translate(-64.38 -25.21)"/><path class="cls-14" d="M213.25,375.33s-7.5,1.33-12.17,10-5.25,9.58-5.25,11.17,2.92-3,3.67-3.92,7.92-7.08,12-5.92c0,0,6.41-3.58,5.16-7.58S213.25,375.33,213.25,375.33Z" transform="translate(-64.38 -25.21)"/><path class="cls-14" d="M241.5,375.33s-3.08-.16-2.67,5S241,395.67,241,397.67s1.67-.92,1.67-2.42,2.17-13.68,2-15.76S243.17,374.59,241.5,375.33Z" transform="translate(-64.38 -25.21)"/><path class="cls-14" d="M272.75,374.25s-.42,3.92,3.17,3.92,10.25,4.08,11.17,5.92,1.5,2.67.58-3.58-13.4-8.86-14.08-8.92S272.75,374.25,272.75,374.25Z" transform="translate(-64.38 -25.21)"/><path class="cls-14" d="M268.37,363.15a8.16,8.16,0,0,1,7.3,1.43c3.58,2.75,5,2.64,4.76,8.67s-2.21-4-7.7-3.33S266.74,364.06,268.37,363.15Z" transform="translate(-64.38 -25.21)"/><path class="cls-14" d="M282.25,348.75s-.83,7.67-2.42,9.25-.24,1.17.63.75,7.54-5.92,7.29-10S282.25,348.75,282.25,348.75Z" transform="translate(-64.38 -25.21)"/><path class="cls-14" d="M293.75,350.17s-4.91,9.09-5.62,9-1.29,1.63,1.46,0,8.67-6.22,8.67-7.38S297.42,346.5,293.75,350.17Z" transform="translate(-64.38 -25.21)"/><path class="cls-14" d="M331.75,347.5a10.32,10.32,0,0,1,5.33-.42c2.33.67,5.25,2.67,5.75,4.33s1.17-.66.58-2.75-5.91-8.62-10.33-8.5-7.5-1-6.42,1.08S330.92,348.42,331.75,347.5Z" transform="translate(-64.38 -25.21)"/><path class="cls-14" d="M322.5,335.33s6.75.33,8.25,1.75a12.81,12.81,0,0,1,3,4.58c.25.92-5.42-1.73-8.25-1.7S322.5,335.33,322.5,335.33Z" transform="translate(-64.38 -25.21)"/><path class="cls-15" d="M221.75,142.33s3.75,5,9.75,4.64,6.67-1.56,6.67-1.56,1.83,2.08,3.17,2.17,10.42.83,14.08-2.17" transform="translate(-64.38 -25.21)"/><path class="cls-16" d="M225.73,145.91s-3,13.43,10.88,14.76c0,0,14.15-.21,16.6-13.69,0,0-.71.14-9,.75,0,0-4.08.44-6-2.31C238.17,145.42,233.21,149,225.73,145.91Z" transform="translate(-64.38 -25.21)"/><path class="cls-17" d="M195.83,160.67S179,149.83,183,116.42" transform="translate(-64.38 -25.21)"/></svg>