<svg id="Layer_1" data-name="Layer 1" xmlns="http://www.w3.org/2000/svg" viewBox="0 0 403.98 193.86"><defs><style>.cls-1{fill:#c0853f;}.cls-2{fill:#000001;}.cls-3,.cls-4,.cls-5{fill:#fff;}.cls-4{opacity:0.66;}.cls-5{opacity:0.85;}.cls-6{fill:#827a78;}.cls-7{fill:#4b494a;}.cls-8{fill:#020001;}.cls-9{fill:#ae8b76;}</style></defs><title>platypus</title><path class="cls-1" d="M375.67,187.33s-3-6-6.67-6-8.33-6-12-7.33-17.33-4.67-26-4.67,10,5-57.67-6c0,0-38.33.33-46.33,3s-8.33-5.33-30,1.33S145.67,178,129.33,189.33,97.33,203,96,209.15,72.33,246.67,74.33,262c0,0-34.33,34-42.67,42.67s-19.42,27-16.54,37.58,8.88,19.88,32.75,12,42.5-26.75,43-28,17.75-23.62,25-21,8.38,6.63,2.75,9.38-14,5.25-16.75,4.75-.62,1.63.5,1.25,4.38,1.75,4.38,1.75.75,5.63-1.5,6.5-6.5,3-6.5,3a3.67,3.67,0,0,0,2.88,0c1.75-.62,7.63-3.12,8.63-1.75s1.88,3.5-.37,5.75-.75,2.88,1.25,1.75,5.38-6.75,7.88-5.5,1.38,3,.13,4.38-4.75,4.25-4.62,4.88,1.88-.25,2.38-.5,5.75-6,11-5,8.25-1.5,8,.63-2.62,3.25-2.62,4.5,2.13,1.13,3.13-.25,6.38-14.87,7.25-15.75,7.25-7.5,7.25-8.25,3.75-7,5.63-7.62,29.25-7.87,35-12.5,8.38-3.62,9.75-2.75,9.5-3.25,12.38-3.12,5.25,2.88,5.25-.62,9.63-8.12,13.88-7.37,21-11.75,30.5-11.75,21.75-5,23.5-4.5,1.13,4.88-.12,5.13-4.75,7.38-9.5,8.38-8.62,2-8.5,3.38,6.13,1.63,10.13,4.13,9.63,8,10.88,8,12.13-3.75,17.13-2.12,5.25,1.25,6.25.5,10.25-7,15-5.25c0,0,2.5-13.37,7.63-13.62s1.5-1.37-10.75-4.5c0,0-7-1.25-9-3.87s-10.12-1.62-12.25-5.37,6.5-2.87,12.75-7.5,30.25-18.37,35.38-18.37,23.58-12.12,23.92-15.62,3.74-7.38,9.21-5.69S375.67,187.33,375.67,187.33Z" transform="translate(-14.66 -163.33)"/><circle class="cls-2" cx="336.74" cy="31" r="2.79"/><circle class="cls-3" cx="336.47" cy="29.78" r="0.7"/><circle class="cls-4" cx="336.6" cy="31.28" r="0.57"/><circle class="cls-5" cx="336.6" cy="31.28" r="0.37"/><path class="cls-6" d="M371.13,188.06s-2.56-.94-3.37-1.94-2.94-1.62-3.81.31-4.31,6.56-1.94,8.75-5.37,2.94-3,11.25a2.9,2.9,0,0,0,3.75,2.56c3.5-.62,6.19-.4,7.44.08s10,4.67,14.69,5,7.63,3.81,11.5,3.37,8.25-3.94,10.63-7a24.66,24.66,0,0,1,5.13-5.19c.56-.31,4.75-6.81,4.13-8.62s2-3.12,2-4.37,1.94-4.5-2.81-4.37-15.75,5.25-26.19,2.88c0,0-7.75-2.12-10.75-1.56S371.13,188.06,371.13,188.06Z" transform="translate(-14.66 -163.33)"/><path class="cls-7" d="M372.57,188.54s-7.69,7.77-8.57,15c0,0-.44,5.36-1.25,5.44s-3.31.95-3.75-2.56-.77-5.76,3.43-10.22c0,0-1.62-1.93-1.22-3.53l.4-1.6s1.79-5.87,3.44-5.78,1.13-.05,6.07,2.76Z" transform="translate(-14.66 -163.33)"/><path class="cls-8" d="M400.38,202.88s-3,.38-2.87-.87,4.25-.94,4.25-.94S401.75,202.84,400.38,202.88Z" transform="translate(-14.66 -163.33)"/><path class="cls-6" d="M303.63,261.25a6.19,6.19,0,0,0,5.5,3,10.69,10.69,0,0,1,6.75,2.42,13.29,13.29,0,0,0,9,3.88c6,.33,12.58,3.33,12.76,3.74s-3,.59-4.07,1.62-5.23,7.55-5.56,12.76c0,0-6.33-1.54-15,5.25,0,0-1.5,1.71-6.25-.5,0,0-10.67-.37-17.12,2.13,0,0-13.71-11.08-21-12.12,0,0,19.21-7.37,18.13-16.87" transform="translate(-14.66 -163.33)"/><path class="cls-8" d="M401.75,199.56s.19-2.24,1.38-2.34,1.5-.35,1.19.65S401.94,200.31,401.75,199.56Z" transform="translate(-14.66 -163.33)"/><path class="cls-6" d="M119.56,307s6.94,8-17.69,12.35c0,0,6.38-3.5,4.88,3s-8,9.5-8,9.5l11.5-1.75-1.49,7.49L119,332.13l-4.5,9.25s7.57-5.43,13.38-5.5,9.38,1.13,5.38,5.13,2.85,1.69,7.92-11.78a44,44,0,0,1,15.33-20.09Z" transform="translate(-14.66 -163.33)"/><path class="cls-9" d="M302.25,258.25s-4.37-4.62-11.25-1.12-6.32,4.27-4.75,7.88-7.5,16.5-9.62,17.13.63.75,2.38,0,7.13-4.62,9.13-4.5,5.38-3.37,4.5,1.75-2,11.88-1.75,12.75.75,1.25,2.13-3.37,4.13-10.37,5.38-10.37S301,278,302.25,282s7.38,9.88,8.25,9.38-5.75-10.75-5.62-13,0-4,2.75-.87,13.75,6.88,13.75,6.88a4.18,4.18,0,0,0-1.87-3C317.75,280.25,302.88,268.75,302.25,258.25Z" transform="translate(-14.66 -163.33)"/><path class="cls-9" d="M154.9,307.16s-20-9.37-21.8-5.23-24.54,17.91-27.7,17.49,10.82,4.61,11.87,4.71-14.58,7.06-14.58,7.06,17.09-4.06,17.9-4.42-8.8,9.17-8.46,9.64,5.76-3.85,11-7c0,0,1.83,4.19-5.53,10.41,0,0,7.69-4,8.46-4.88s9.39-8.68,10.92-7.66,1.31,7.95-1.89,11.87c0,0,2.28,1,2.91-.29s7.24-19.47,8.85-20.44S156,307.68,154.9,307.16Z" transform="translate(-14.66 -163.33)"/></svg>