<svg id="Layer_1" data-name="Layer 1" xmlns="http://www.w3.org/2000/svg" viewBox="0 0 217.26 238.7"><defs><style>.cls-1{fill:#c8b68b;}.cls-2{fill:#bc9d5e;opacity:0.45;}.cls-3{fill:#d1b59d;}.cls-4{fill:#94591a;}.cls-5{fill:#cfa773;}.cls-6{fill:#3d1e12;}.cls-7{fill:#745849;}.cls-17,.cls-8{fill:#341a16;}.cls-8{stroke:#1c1817;stroke-width:2px;}.cls-15,.cls-18,.cls-8{stroke-miterlimit:10;}.cls-9{fill:#1c1817;}.cls-10{fill:#fff;}.cls-11{fill:#8b6f7b;}.cls-12{fill:#995073;}.cls-13{fill:#f8f0d2;}.cls-14{fill:#22171f;}.cls-15,.cls-18{fill:#a95b32;stroke:#352514;}.cls-15{stroke-width:4px;}.cls-16{fill:#2c0b00;}.cls-18{stroke-width:0.75px;}.cls-19{fill:#ebcfce;}.cls-20{fill:#59433a;opacity:0.4;}.cls-21{fill:#baa479;}.cls-22{fill:#dbc597;}</style></defs><title>slowloris</title><path class="cls-1" d="M87.29,72.07l-9-5.34s-.21-3,1.07-3S77,59.9,80.88,57.34c0,0-1.49-6.19,3.41-4.91,0,0,3-3.2,4.27-2.56s10.88,2.77,14.09,6-.64,9-2.13,21.34a240,240,0,0,0-1.71,26c0,3,7.68,29.24,9.39,29.45s15.58-4.27,15.37,5.76c0,0,11.53-6.4,17.71-3.84s6.83,6,11.53,7.47,18.57,9.82,19.64,13.66,2.77-.85,6.83,1.81S189.95,166.62,185,173c0,0,6.19,5.55,12.38-2.77S222,140.37,222,140.37s5.12-8.54,3.63-12-2.56-8.32-.85-9,3.41-5.34,5.12-5.34,2.13,1.28,3.84.85,6.19,0,7.26,1.49,4.48.21,5.34,2.77,3.84,4.48,4.06,7.68,1.71,6.4-10,16.86c0,0-19.85,40.34-19.85,44.39s-6.4,21.34-10,23.48-8.32,15.58-24.12,16.22c0,0-22,45-14.09,60.61H33.29s.85-28,3-30.31,2.56-11.53,5.34-15.37,16.65-32.23,16.65-39.48,8.32-32,8.32-38.63-5.12-18.57.85-32S87.29,72.07,87.29,72.07Z" transform="translate(-33.29 -49.79)"/><path class="cls-2" d="M107.67,147.2s-11.21-4.75-9.93,9.58-4,25.29,9.74,33.25,13.27,18.7,34.42,11,24.31-18.1,33-19.95S185,173,185,173Z" transform="translate(-33.29 -49.79)"/><path class="cls-3" d="M138.21,134s3.89,12.65,3.69,13.13,8.16,4.32,9.74,1.28a12,12,0,0,0,1.16-6.35S142.08,132.56,138.21,134Z" transform="translate(-33.29 -49.79)"/><path class="cls-4" d="M141.91,144.41s-1.07-11.13-5.24-10.36-16.29,1.56-17.15,12.08,21.34,5.17,21.34,5.17Z" transform="translate(-33.29 -49.79)"/><path class="cls-5" d="M133.64,142.73a80.52,80.52,0,0,0-14.12,3.4c-6.51,2.35-13.24,5.93-11.85,12.89s1,15.71,10.08,8S127.27,142.74,133.64,142.73Z" transform="translate(-33.29 -49.79)"/><path class="cls-6" d="M138.67,157.07s.43-6.88-2-8-6.27-1.71-5.2-4.06-1.09,2.35-3.11,2.35-6.15.64-5.58-.43,2.09,3.88-.05,3.75-7,2.42-7,4.14-6,6.25,2.05,12.17S136.27,166.3,138.67,157.07Z" transform="translate(-33.29 -49.79)"/><path class="cls-4" d="M152.81,142.08s-6,3.48-3.86,5.31-3.08,9.2-3.08,9.2,18.6,10.5,21.45,8.36,7.32-6.27,5.12-9.21S155.32,143.25,152.81,142.08Z" transform="translate(-33.29 -49.79)"/><path class="cls-7" d="M135,161.48s2.19-8.63-8.91-8.36-7.9,10.51-7.9,10.51,7.1,5,9.34,4.61S135,161.48,135,161.48Z" transform="translate(-33.29 -49.79)"/><path class="cls-5" d="M156.76,156.85s9.06,9.37,1.13,16.93-10.42,5-10.42,5,5.21,7.67,11.65,4.71,9.91-8.22,9.91-12.21-4.21-13.36-6.94-14.86A5.21,5.21,0,0,0,156.76,156.85Z" transform="translate(-33.29 -49.79)"/><path class="cls-8" d="M120.8,162.14s-2.77-7,2.56-7.26,8.11,4.91,8.11,7.26S127.41,167.47,120.8,162.14Z" transform="translate(-33.29 -49.79)"/><rect class="cls-9" x="90.12" y="109.23" width="4.07" height="4.07" rx="2.03" ry="2.03"/><path class="cls-6" d="M140.74,162.73s2.24-5.62,9.72-5.88,10,1.87,10,8.27-.43,17.85-14.73,12S140.74,162.73,140.74,162.73Z" transform="translate(-33.29 -49.79)"/><path class="cls-7" d="M139,168.27s1.49-8.32,8.11-7.09,10.4,3.9,11.21,8.64-3.31,8.75-8.64,6.83S140.64,173.22,139,168.27Z" transform="translate(-33.29 -49.79)"/><path class="cls-8" d="M141.91,170s1.73-6.2,8.13-4.91,5.76,5.77,5.76,5.77S150.21,177.93,141.91,170Z" transform="translate(-33.29 -49.79)"/><path class="cls-10" d="M124.42,159.58s-.05-2,1-1.71,1.87.69,1.49,1.49S124.74,160.64,124.42,159.58Z" transform="translate(-33.29 -49.79)"/><path class="cls-10" d="M127,162.51a1.26,1.26,0,0,1,1.83-.85c1.39.69,1.28,2.08.75,2.24S126.58,164.11,127,162.51Z" transform="translate(-33.29 -49.79)"/><path class="cls-11" d="M118.66,185.08s-.88,3.84,1,5.68,5.36,5.28,11.85,4,6.8-7.92,6.8-7.92S119.54,182.2,118.66,185.08Z" transform="translate(-33.29 -49.79)"/><rect class="cls-9" x="114.19" y="118.21" width="4.07" height="4.07" rx="2.03" ry="2.03"/><path class="cls-12" d="M122.1,187.4s3.36,4.85,6.26,1.37S123.2,185,122.1,187.4Z" transform="translate(-33.29 -49.79)"/><path class="cls-10" d="M148.86,167s-1.65.27-1.39,1.17,1.23,1.43,1.76,1.14,1.44-.82,1.17-1.57S148.86,167,148.86,167Z" transform="translate(-33.29 -49.79)"/><path class="cls-13" d="M115.7,178.68s.09,5.63,2.77,7.9a4.06,4.06,0,0,0,3.63.82c6.24-1.28,5.28-2.64,5.28-2.64s-1.36,6.08,6.88,6,13.18-7,13.18-7-8.35-8.47-8.4-11.28,1-14,6.83-15.94,7.76-6.8,3.08-9.2-11-1.36-10.6,3,1.76,3.44.32,6.64-4.32,9-9.84,11.18S116.1,173.08,115.7,178.68Z" transform="translate(-33.29 -49.79)"/><path class="cls-10" d="M151.32,171.26s-1.45.32-.86,1,2.73.16,2.51-.48S151.32,171.26,151.32,171.26Z" transform="translate(-33.29 -49.79)"/><path class="cls-14" d="M123.52,179.16s-2.7-5.55,2.25-6.19,9.91-.11,10.82,5.39-6.14,2.24-7.79,4.59S125.81,178.68,123.52,179.16Z" transform="translate(-33.29 -49.79)"/><path class="cls-14" d="M125.7,180.67s1.74,3.29.08,5.69c0,0-.33,1.28.32,1.28a2.85,2.85,0,0,0,1.39-.56s.78-5.45,3.34-5.69S125.7,180.67,125.7,180.67Z" transform="translate(-33.29 -49.79)"/><path class="cls-15" d="M107.67,147.2s.93-15.86,9-12.59c0,0,5,2.53,1.82,9.8,0,0-.75.75-1.82,1.72s-3.2.65-3.63,2.35-1.81,3.63-2.45,2.45S108.42,146,107.67,147.2Z" transform="translate(-33.29 -49.79)"/><path class="cls-16" d="M111.51,177.14a4,4,0,0,1,4.19,1.54c1.57,2.24.51,6.62,3,6.4C118.66,185.08,113,184.57,111.51,177.14Z" transform="translate(-33.29 -49.79)"/><path class="cls-16" d="M145.55,189.59s-2.52-1.15-7.77,1.17-2.62,1.79-2.62,1.79S142.46,192.29,145.55,189.59Z" transform="translate(-33.29 -49.79)"/><path class="cls-17" d="M166.68,163.09s5.19-7,8.9-6.26,14.59,5.31,9.47,16.2c0,0-15.79.21-17.71,1.71S166.68,163.09,166.68,163.09Z" transform="translate(-33.29 -49.79)"/><path class="cls-18" d="M169,167s.5-8.76,7.29-7,8.29,3.84,6.15,8-12.59,4.17-15.15,6.73S168.11,170.82,169,167Z" transform="translate(-33.29 -49.79)"/><path class="cls-19" d="M84.09,154.88s-.85-23,3-33.29,5.86-50.8,5.86-50.8,4.39-6,3.54,0-2.34,66.19.11,71.94S84.17,160,84.09,154.88Z" transform="translate(-33.29 -49.79)"/><path class="cls-19" d="M152.86,222.33s.8-11.66,7.63-16.93S184,181.9,194.22,177.14,154.62,232.14,152.86,222.33Z" transform="translate(-33.29 -49.79)"/><path class="cls-20" d="M71.29,231.72s-8.12,0-9,4.27-4.09,6.48-3.41,8.11c3,7.26,4.27,9.39,2.13,10.67s5-2.13,4,2.56,2-2.56,4.52-3,1.71-6.4-1.71-7.26-3.41-5.55-.85-7.68S71.29,231.72,71.29,231.72Z" transform="translate(-33.29 -49.79)"/><path class="cls-20" d="M88.78,245.31c1.15-8.54,4.15,9.46,4.15,9.46s6.44-4.33,3.92-4.73S87.93,251.65,88.78,245.31Z" transform="translate(-33.29 -49.79)"/><path class="cls-20" d="M102.81,234.27c11.93.43,9.37,4.14,8.52,5.06s-4.29,5.06-6.4,0Z" transform="translate(-33.29 -49.79)"/><path class="cls-20" d="M93.07,280.81c-5.88,4.55,9.35-1.71,9.35-1.71s5.1-7.26,0-7.26-18,4.27-12,4.48S96.93,277.82,93.07,280.81Z" transform="translate(-33.29 -49.79)"/><path class="cls-21" d="M84.3,52.43s-5.12-2.13-3.41,4.91c0,0,1.71-.64,10.46,6.4,0,0,5.12-1.16,1.28-5.81A15.79,15.79,0,0,0,84.3,52.43Z" transform="translate(-33.29 -49.79)"/><path class="cls-22" d="M94.05,56.86s.28,5.92,3.48,5.92,8.64-3,5.12-6.94-14.09-6-14.09-6a6.41,6.41,0,0,0-4.27,2.56C83,54.62,94.05,56.86,94.05,56.86Z" transform="translate(-33.29 -49.79)"/><path class="cls-22" d="M80.88,57.34s-3.14,1.8-1.49,6.4c0,0,7.58,2.85,9.5,4.39s2.45-4.39,2.45-4.39S83.6,56.06,80.88,57.34Z" transform="translate(-33.29 -49.79)"/><path class="cls-21" d="M79.39,63.75s-2.3,2.25,1.15,4.31,8.67,2.74,8.67,2.74,1.22-1.71-.32-2.66S81.58,63.59,79.39,63.75Z" transform="translate(-33.29 -49.79)"/><path class="cls-22" d="M226.87,126.82s6.51-5.23,6.51-7.47-1.42-7-3.52-5.23-3.74,5.34-5.12,5.34S222.92,128.52,226.87,126.82Z" transform="translate(-33.29 -49.79)"/><path class="cls-21" d="M241.77,117.05s-8.92-.27-10.42,2.29-1.49,4.06,0,4.06,14.62-.64,15.47,0,.25-3-.53-4.16S245.48,117,241.77,117.05Z" transform="translate(-33.29 -49.79)"/><path class="cls-22" d="M248.78,134.58s-9-6.7-12.41-6.7-8-1.17-5-4.48,14.39-1.91,16.54.07,1.71,2.06,2.45,3.45S249.62,133.34,248.78,134.58Z" transform="translate(-33.29 -49.79)"/><path class="cls-21" d="M231.14,132.47s2.56-4.59,5.23-4.59,11.69,5.5,12.41,6.7-4.67,5.62-4.67,5.62S230.29,133.78,231.14,132.47Z" transform="translate(-33.29 -49.79)"/><path class="cls-20" d="M122.71,263s1.75,12.58,6.75,13.24,8.2,5.32,9.89,4c7.55-5.77,9.68-8.09,11.59-5s-3.5-7.48,2-6.62-3.31-2.64-4.35-6.54-7.6-1.64-7.82,3.79-5.53,6.17-8.49,2.53S122.71,263,122.71,263Z" transform="translate(-33.29 -49.79)"/><path class="cls-20" d="M94.23,204.23c-8.61,0,8.8-5.41,8.8-5.41s-5.18-5.78-5.22-3.23S100.62,204.2,94.23,204.23Z" transform="translate(-33.29 -49.79)"/><path class="cls-20" d="M149.57,255c-1.22-11.88,2.81-9.85,3.83-9.13s5.6,3.55.88,6.34Z" transform="translate(-33.29 -49.79)"/><path class="cls-20" d="M168.34,234.64c5.32,5.2-3-9-3-9s-7.89-4.05-7.19,1,6.71,17.27,6.09,11.26S164.84,231.23,168.34,234.64Z" transform="translate(-33.29 -49.79)"/></svg>